# xmcd
#
# Track frame offsets: 
#        150
#        18372
#        35482
#        50782
#        65335
#        81235
#        98112
#        114045
#        129850
#        150595
#        169275
#
# Disc length: 2531 seconds
#
# Revision: 1
# Processed by: cddbd v1.5.2PL0 Copyright (c) Steve Scherf et al.
# Submitted via: ExactAudioCopy v1.0b3
#
DISCID=8309e10b
DTITLE=小椋佳 - マルコ・ポーロの冒険
DYEAR=2003
DGENRE=Anime
TTITLE0=大空から見れば
TTITLE1=蒼き狼
TTITLE2=また旅仕度
TTITLE3=誰でもいいから
TTITLE4=望郷
TTITLE5=キシェラック ヤイラック
TTITLE6=マティオ・ニコロ そしてマルコ・ポーロ
TTITLE7=ひとすくいの水
TTITLE8=大地は
TTITLE9=黄金のパイザ
TTITLE10=いつの日か旅する者よ
EXTD=YEAR: 2003
EXTT0=
EXTT1=
EXTT2=
EXTT3=
EXTT4=
EXTT5=
EXTT6=
EXTT7=
EXTT8=
EXTT9=
EXTT10=
PLAYORDER=
